<?xml version="1.0" encoding="UTF-8"?>
<svg id="Ebene_2" data-name="Ebene 2" xmlns="http://www.w3.org/2000/svg" viewBox="0 0 116.54 57.35">
  <defs>
    <style>
      .cls-1 {
        fill: #f6ae35;
      }

      .cls-1, .cls-2, .cls-3 {
        stroke: #1d1d1b;
        stroke-miterlimit: 10;
      }

      .cls-4 {
        font-family: Chorine-Large, Chorine;
        font-size: 12px;
      }

      .cls-5, .cls-3 {
        fill: #1d1d1b;
      }

      .cls-2 {
        fill: #2dc1bb;
      }

      .cls-6 {
        letter-spacing: -.02em;
      }

      .cls-7 {
        letter-spacing: -.04em;
      }

      .cls-8 {
        letter-spacing: -.03em;
      }
    </style>
  </defs>
  <g id="Ebene_1-2" data-name="Ebene 1">
    <rect class="cls-3" x="3.11" y="38.2" width="112.93" height="18.66" rx="9.33" ry="9.33"/>
    <rect class="cls-1" x="1.24" y="36.2" width="112.93" height="18.66" rx="9.33" ry="9.33"/>
    <path class="cls-3" d="M7.72,39.87L1.83,11.37c-.08-.38.1-.69.45-.76l5.99-1.24c8-1.65,11.57,5.68,13.11,13.12,1.39,6.72,2.24,14.75-7.03,16.66l-5.91,1.22c-.35.07-.63-.14-.71-.52ZM14.22,17.15c-.6-2.89-2.67-3.97-3.64-3.77-.35.07-.57.34-.49.77l1.51,7.31c.14.68.42.89.93.78,1.81-.42,2.06-3.31,1.69-5.09Z"/>
    <path class="cls-3" d="M24.44,38.71l-2.35-29c-.03-.39.18-.67.54-.7l6.17-.5c.35-.03.61.21.64.6l2.35,29c.03.39-.18.67-.54.7l-6.17.5c-.35.03-.61-.21-.64-.6Z"/>
    <path class="cls-3" d="M32.69,23.88c0-9.61,2.59-19.31,11.15-19.31,5.66,0,8.55,4.14,8.55,7.94,0,.71-.39.71-.95.71h-3.63c-.6,0-.99,0-.99-.71,0-1.81-1.3-2.85-2.85-2.85-2.89,0-3.54,3.8-3.54,6.56,0,4.42,1.43,5.76,3.67,5.76,1.12,0,2.81-.14,2.81-2.33,0-.43-.39-.71-.99-.71h-1.99c-.6,0-.65-.1-.65-.71v-2.33c0-.43.39-.71.95-.71h7.52c.6,0,.99.29.99.71v21.5c0,.43-.39.71-.99.71h-2.2c-.56,0-.95-.29-.95-.71v-.33c0-.95-1.69,1.14-6.48,1.14-6.83,0-9.42-4.28-9.42-14.32Z"/>
    <path class="cls-3" d="M54.81,23.88c0-9.61,2.59-19.31,11.15-19.31,5.66,0,8.55,4.14,8.55,7.94,0,.71-.39.71-.95.71h-3.63c-.6,0-.99,0-.99-.71,0-1.81-1.3-2.85-2.85-2.85-2.89,0-3.54,3.8-3.54,6.56,0,4.42,1.43,5.76,3.67,5.76,1.12,0,2.81-.14,2.81-2.33,0-.43-.39-.71-.99-.71h-1.99c-.6,0-.65-.1-.65-.71v-2.33c0-.43.39-.71.95-.71h7.52c.6,0,.99.29.99.71v21.5c0,.43-.39.71-.99.71h-2.2c-.56,0-.95-.29-.95-.71v-.33c0-.95-1.69,1.14-6.48,1.14-6.83,0-9.42-4.28-9.42-14.32Z"/>
    <path class="cls-3" d="M86.97,40.6l-5.84-.66c-3.41-.39-5.18-2.64-4.75-6.44l2.68-23.73c.04-.39.43-.61.97-.55l10.03,1.13c.55.06.87.36.83.75l-.36,3.15c-.04.39-.43.61-.97.55l-2.59-.29c-.51-.06-.89.16-.94.55l-.2,1.81c-.04.39.28.69.79.74l1.72.19c.51.06.83.36.79.74l-.36,3.15c-.04.39-.43.61-.94.55l-1.72-.19c-.51-.06-.88.08-.89.12l-.15,1.34c-.04.39.28.69.79.74l2.9.33c.51.06.83.36.79.74l-1.66,14.71c-.04.39-.43.61-.94.55Z"/>
    <path class="cls-3" d="M90.75,38.64l2.46-29.04c.03-.39.29-.63.64-.6l7.15.61c7.59.64,10.13,3.78,9.77,8.02s-3.33,6.08-5.5,6.51c-.32.06-.45.18-.46.27s.14.19.49.3c3.04,1.08,4.22,2.06,4.01,4.52l-.92,10.9c-.03.39-.29.63-.64.6l-6.13-.52c-.35-.03-.57-.31-.53-.7l.94-11.16c.11-1.34-.88-1.77-1.74-1.85-.59-.05-.96.09-.99.53l-1.04,12.25c-.03.39-.29.63-.64.6l-6.33-.54c-.35-.03-.57-.31-.53-.7ZM100.3,20.8c1.02.09,3.3-.64,3.52-3.28.19-2.29-1.71-3.2-2.77-3.29-.39-.03-.68.03-.69.2l-.52,6.1c-.01.13.18.23.45.26Z"/>
    <path class="cls-2" d="M6.41,35.8L.52,7.31c-.08-.38.1-.69.45-.76l5.99-1.24c8-1.65,11.57,5.68,13.11,13.12,1.39,6.72,2.24,14.75-7.03,16.66l-5.91,1.22c-.35.07-.63-.14-.71-.52ZM12.91,13.08c-.6-2.89-2.67-3.97-3.64-3.77-.35.07-.57.34-.49.77l1.51,7.31c.14.68.42.89.93.78,1.81-.42,2.06-3.31,1.69-5.09Z"/>
    <path class="cls-2" d="M23.14,34.64l-2.35-29c-.03-.39.18-.67.54-.7l6.17-.5c.35-.03.61.21.64.6l2.35,29c.03.39-.18.67-.54.7l-6.17.5c-.35.03-.61-.21-.64-.6Z"/>
    <path class="cls-2" d="M31.38,19.81c0-9.61,2.59-19.31,11.15-19.31,5.66,0,8.55,4.14,8.55,7.94,0,.71-.39.71-.95.71h-3.63c-.6,0-.99,0-.99-.71,0-1.81-1.3-2.85-2.85-2.85-2.89,0-3.54,3.8-3.54,6.56,0,4.42,1.43,5.76,3.67,5.76,1.12,0,2.81-.14,2.81-2.33,0-.43-.39-.71-.99-.71h-1.99c-.6,0-.65-.1-.65-.71v-2.33c0-.43.39-.71.95-.71h7.52c.6,0,.99.29.99.71v21.5c0,.43-.39.71-.99.71h-2.2c-.56,0-.95-.29-.95-.71v-.33c0-.95-1.69,1.14-6.48,1.14-6.83,0-9.42-4.28-9.42-14.32Z"/>
    <path class="cls-2" d="M53.51,19.81c0-9.61,2.59-19.31,11.15-19.31,5.66,0,8.55,4.14,8.55,7.94,0,.71-.39.71-.95.71h-3.63c-.6,0-.99,0-.99-.71,0-1.81-1.3-2.85-2.85-2.85-2.89,0-3.54,3.8-3.54,6.56,0,4.42,1.43,5.76,3.67,5.76,1.12,0,2.81-.14,2.81-2.33,0-.43-.39-.71-.99-.71h-1.99c-.6,0-.65-.1-.65-.71v-2.33c0-.43.39-.71.95-.71h7.52c.6,0,.99.29.99.71v21.5c0,.43-.39.71-.99.71h-2.2c-.56,0-.95-.29-.95-.71v-.33c0-.95-1.69,1.14-6.48,1.14-6.83,0-9.42-4.28-9.42-14.32Z"/>
    <path class="cls-2" d="M85.67,36.53l-5.84-.66c-3.41-.39-5.18-2.64-4.75-6.44l2.68-23.73c.04-.39.43-.61.97-.55l10.03,1.13c.55.06.87.36.83.75l-.36,3.15c-.04.39-.43.61-.97.55l-2.59-.29c-.51-.06-.89.16-.94.55l-.2,1.81c-.04.39.28.69.79.74l1.72.19c.51.06.83.36.79.74l-.36,3.15c-.04.39-.43.61-.94.55l-1.72-.19c-.51-.06-.88.08-.89.12l-.15,1.34c-.04.39.28.69.79.74l2.9.33c.51.06.83.36.79.74l-1.66,14.71c-.04.39-.43.61-.94.55Z"/>
    <path class="cls-2" d="M89.45,34.57l2.46-29.04c.03-.39.29-.63.64-.6l7.15.61c7.59.64,10.13,3.78,9.77,8.02s-3.33,6.08-5.5,6.51c-.32.06-.45.18-.46.27s.14.19.49.3c3.04,1.08,4.22,2.06,4.01,4.52l-.92,10.9c-.03.39-.29.63-.64.6l-6.13-.52c-.35-.03-.57-.31-.53-.7l.94-11.16c.11-1.34-.88-1.77-1.74-1.85-.59-.05-.96.09-.99.53l-1.04,12.25c-.03.39-.29.63-.64.6l-6.33-.54c-.35-.03-.57-.31-.53-.7ZM98.99,16.73c1.02.09,3.3-.64,3.52-3.28.19-2.29-1.71-3.2-2.77-3.29-.39-.03-.68.03-.69.2l-.52,6.1c-.01.13.18.23.45.26Z"/>
    <circle class="cls-5" cx="37.11" cy="23" r=".73"/>
    <circle class="cls-5" cx="39.86" cy="23" r=".73"/>
    <circle class="cls-5" cx="37.11" cy="25" r=".73"/>
    <circle class="cls-5" cx="39.86" cy="25" r=".73"/>
    <circle class="cls-5" cx="42.65" cy="23" r=".73"/>
    <circle class="cls-5" cx="45.32" cy="23" r=".73"/>
    <text class="cls-4" transform="translate(18.58 49.01)"><tspan x="0" y="0">g</tspan><tspan class="cls-8" x="5.81" y="0">r</tspan><tspan x="9.36" y="0">ab it your </tspan><tspan class="cls-7" x="55.51" y="0">w</tspan><tspan x="63.2" y="0">ay</tspan><tspan class="cls-6" x="74.21" y="0">.</tspan></text>
    <circle class="cls-5" cx="100.21" cy="49.74" r=".73"/>
    <circle class="cls-5" cx="102.95" cy="49.74" r=".73"/>
    <circle class="cls-5" cx="100.21" cy="51.74" r=".73"/>
    <circle class="cls-5" cx="102.95" cy="51.74" r=".73"/>
    <circle class="cls-5" cx="105.75" cy="49.74" r=".73"/>
    <circle class="cls-5" cx="108.41" cy="49.74" r=".73"/>
  </g>
</svg>